<?xml version="1.0" encoding="UTF-8"?>
<svg version="1.1" viewBox="0 0 2048 682" width="1280" height="1280" xmlns="http://www.w3.org/2000/svg">
<path transform="translate(0)" d="m0 0h2048v682h-2048z"/>
<path transform="translate(0)" d="m0 0h2048v682h-2048zm736 33-701 1-1 10v604h1979v-614l-49-1z" fill="#FAFCFE"/>
<path transform="translate(896,53)" d="m0 0h9l5 3 3 4 1 5-3 7-5 2-1 63 6-2h12l5 4 1 8-3 7-8 20-9 10-3 6-1 4-2 66h19v-64l3-7 7-4 15-1h125v-15l4-1 3 2 1 3v11h19v-51l-2-14-4-12-7-13-11-12-8-7-12-7-13-4-17-2-19 1-14 4-16 7-6 3-3 7-8 11-8 15-4 12-2 15v19l4 1h14l1-24 4-14 7-13 11-12 10-7 10-4 5-1h24l10 3 11 6 8 6 7 10 6 12 3 12v23l-3 2-4-1-1-2-2-23-4-12-5-9-4-5-10-7-9-4-10-2h-12l-10 2-9 4-8 6-8 10-5 12-1 4-2 32-1 3-5 2-9 1h-11l-7-2-4-5-1-3v-15l2-19 5-16 9-17 10-11 10-6 3-5 10-7 14-5 10-2h30l14 3 12 5 11 7 12 11 8 11 8 15 4 14 1 6 1 16v42l9 2 3 4 1 6 1 29v36l17-1-1-68-3-7-9-9-4-7-2-25-3-5-4-5 2-5 9 4 12 5-7-7-12-2-1-3 5-5 10 1 7 2-1-13-3-8-3-5v-7l6-7 2-1h8l6 4 2 5v8l-5 7-2 1v34l7 8 7 7 2 4v124l-1 1-12 1h-29v15l16-1 9-5 3-3 9 1 5 5v13l-3 6-8 1-9-3-8-3-12-2-2-1v15l-2 9-4 3-9 1h-39l-7-2 1-5 1-1 48-1 1-3v-132h-176l-6 1-1 134 119 1v7l-1 1h-116l-7-2-3-8-1-18-3 1-13 1-9 6-7 1-7-3-2-3v-11l2-5 5-3 11 1 5 5 1 2h18v-14l-37-1-4-1-1-2v-120l3-7 9-10 3-2v-68l-7-8v-9l4-5z" fill="#F6FBFD"/>
<path transform="translate(79,373)" d="m0 0h161l5 1v30l-1 1-61 1h-70v33h81l18 1v32l-33 1h-50l-16-1v33h63l68 1 1 1v30l-1 1-148 1-17-1z" fill="#FBFDFE"/>
<path transform="translate(676,373)" d="m0 0h131l1 1v32h-99v66h98l1-65 1-1h31l2 2v64l-5 1h-28v33h32l1 1v30l-2 1h-30l-2-1v-31h-98l-1 31-1 1h-31l-1-1z" fill="#FCFDFE"/>
<path transform="translate(1604,373)" d="m0 0h131l1 1v31l-1 1-98 1v65h30l69 1 1 34h32v30l-1 1h-29l-3-1-1-8v-22l-73-1h-25v31l-1 1h-32l-1-1v-163z" fill="#FBFDFE"/>
<path transform="translate(1007,373)" d="m0 0h132v33h-99v66h77l22 1 1 4-1 28h-99v33h-31l-2-1z" fill="#FDFDFE"/>
<path transform="translate(1539,406)" d="m0 0h30l1 131-5 1h-27l-1-1 1-31-101-1v32l-19 1h-11l-2-2v-129h32l1 7v58h31l68 1v-56l1-10z" fill="#1FB5FF"/>
<path transform="translate(1206,373)" d="m0 0h163l3 2-1 31h-65l-1 132h-32l-1-1v-131h-66l-1-3v-29z" fill="#FDFDFE"/>
<path transform="translate(875,373)" d="m0 0h99v32l-1 1-31 1-1 98 32 1 1 1v30l-1 1h-97l-2-2v-18l1-12 32-1v-99h-32l-1-4v-28z" fill="#FCFDFE"/>
<path transform="translate(1932,439)" d="m0 0h31l4 1 1 64v31l-1 2-25 1h-106l-1-16v-16l99-1 1-33h-66l-1-1v-26l1-5z" fill="#1FB5FF"/>
<path transform="translate(477,406)" d="m0 0h31l2 1v91l-1 8h133l1 2v29l-1 1h-131l-2-2v-29l-31-1-2-3v-95z" fill="#FCFDFE"/>
<path transform="translate(411,373)" d="m0 0h27l6 1v164h-31l-3-3v-28l-28-2-5-1-1-26 2-5h32v-97z" fill="#FCFDFE"/>
<path transform="translate(278,373)" d="m0 0 30 1 4 2v30h15l15 1 2 3v28l-1 1h-32v98l-1 1h-30l-3-1v-93z" fill="#FAFCFE"/>
<path transform="translate(510,373)" d="m0 0h132l1 1v31l-1 1h-132l-1-1v-31z" fill="#FDFDFE"/>
<path transform="translate(1838,373)" d="m0 0h127l2 1v30l-2 2h-46l-84-1v-31z" fill="#1FB5FF"/>
<path transform="translate(477,406)" d="m0 0h31l2 1v91l-1 8 2 1h-13l-20-1-2-3v-95z" fill="#F7FBFE"/>
<path transform="translate(809,406)" d="m0 0h31l2 2v64l-5 1h-28v33h32l1 1v30l-2 1h-30l-2-1v-130z" fill="#F4FAFD"/>
<path transform="translate(1803,406)" d="m0 0h32v100l-1 1-30-1-1-1z" fill="#1FB5FF"/>
<path transform="translate(1450,373)" d="m0 0h85l1 1 1 31-3 1-97-1v-31z" fill="#1FB5FF"/>
<path transform="translate(1140,406)" d="m0 0h32l1 1v64l-6 2h-20l-8-1v-65z" fill="#F8FCFE"/>
<path transform="translate(1736,406)" d="m0 0h32l1 1v66h-32l-1-1-1-31v-33z" fill="#FBFDFE"/>
<path transform="translate(1134,141)" d="m0 0 4 2 13 13 5 8v113l-2 1-15 1h-13l-3-1-1-9 4-1 17-1 4-1v-79l-4-8-8-7-3-5-1-4v-17z"/>
<path transform="translate(1076,226)" d="m0 0 5 1-3 7-7 8-4 6 15 3 6 4 5 6 1 3v13l-4 7-7 6-5 2h-12l-6-4-6-7-2-5v-16l5-12 8-12 6-7z" fill="#F6FBFE"/>
<path transform="translate(903,150)" d="m0 0 4 2 7 8-1 6-10 13-5 6-1 3-1 14v62l3 3 23 2v9l-7 1h-19l-8-1-1-4 1-110 6-8 6-5z"/>
<path transform="translate(1010,226)" d="m0 0h27l1 5-6 2-13 1-4 1-1 11 15 4 6 4 5 6 2 6v8l-3 7-7 8-5 3-4 1h-8l-8-3-6-7-2-5-1-7 2-5 4-5 4 16 6 5 2 1h8l5-3 2-4v-12l-6-5-5-1h-8l-7 1-2-2 1-14 2-13z" fill="#F3FAFE"/>
<path transform="translate(966,224)" d="m0 0 9 1 6 3 6 7 1 2v9l-9 16-11 15-3 6h23l1 2v6l-1 1h-26l-9-1-1-1v-6l10-14 9-12 6-12v-9l-4-4-5-1-8 4-8 9h-3v-7l3-6 7-6z" fill="#F4FAFE"/>
<path transform="translate(808,506)" d="m0 0h33l1 1v30l-2 1h-30l-2-1z" fill="#FCFDFE"/>
<path transform="translate(1736,507)" d="m0 0h33v30l-1 1h-29l-3-1-1-8v-19z" fill="#F8FCFE"/>
<path transform="translate(345,440)" d="m0 0h30l1 1 1 18v14h-18l-11-1-3-2-1-12v-17z" fill="#F8FCFE"/>
<path transform="translate(1068,258)" d="m0 0h7l7 3 3 5v10l-2 4-8 4-7-1-5-4-2-5v-7l3-6z"/>
<path transform="translate(894,62)" d="m0 0h12l3 3-13 1-4-1v-2z"/>
<path transform="translate(918,143)" d="m0 0 4 1-2 4-3 1-9-4v-1z"/>
<path transform="translate(891,300)" d="m0 0 2 1v9l-4 1-1-7z"/>
<path transform="translate(1141,90)" d="m0 0 4 2 1 2v8l-3-3-2-5z"/>
</svg>
